 http://www.imdb.com/title/tt1815862/



One thousand years after cataclysmic events forced humanity's escape from Earth, Nova Prime has become mankind's new home. Legendary General Cypher Raige returns from an extended tour of duty to his estranged family, ready to be a father to his 13-year-old son, Kitai. When an asteroid storm damages Cypher and Kitai's craft, they crash-land on a now unfamiliar and dangerous Earth. As his father lies dying in the cockpit, Kitai must trek across the hostile terrain to recover their rescue beacon. His whole life, Kitai has wanted nothing more than to be a soldier like his father. Today, he gets his chance.



Director:
 M. Night Shyamalan 

Writers:
 Gary Whitta (screenplay), M. Night Shyamalan (screenplay)

Stars:
 Jaden Smith, Will Smith, Sophie Okonedo 

Genres:
  Action |  Adventure |  Sci-Fi 

Country:
 USA 

Language:
 English 




Format                                   : AVI
Format/Info                              : Audio Video Interleave
File size                                : 1.33 GiB
Duration                                 : 1h 33mn
Overall bit rate                         : 2 041 Kbps
Writing application                      : VirtualDubMod 1.5.4.1 (build 2178/release)
Writing library                          : VirtualDubMod build 2178/release

Video
ID                                       : 0
Format                                   : MPEG-4 Visual
Format profile                           : Advanced Simple@L5
Format settings, BVOP                    : No
Format settings, QPel                    : No
Format settings, GMC                     : No warppoints
Format settings, Matrix                  : Custom
Codec ID                                 : XVID
Codec ID/Hint                            : XviD
Duration                                 : 1h 33mn
Bit rate                                 : 1 905 Kbps
Width                                    : 720 pixels
Height                                   : 464 pixels
Display aspect ratio                     : 1.552
Frame rate                               : 25.000 fps
Color space                              : YUV
Chroma subsampling                       : 4:2:0
Bit depth                                : 8 bits
Scan type                                : Progressive
Compression mode                         : Lossy
Bits/(Pixel*Frame)                       : 0.228
Stream size                              : 1.24 GiB (93%)
Writing library                          : XviD 64

Audio
ID                                       : 1
Format                                   : MPEG Audio
Format version                           : Version 1
Format profile                           : Layer 3
Mode                                     : Joint stereo
Mode extension                           : MS Stereo
Codec ID                                 : 55
Codec ID/Hint                            : MP3
Duration                                 : 1h 33mn
Bit rate mode                            : Constant
Bit rate                                 : 128 Kbps
Channel(s)                               : 2 channels
Sampling rate                            : 48.0 KHz
Compression mode                         : Lossy
Stream size                              : 85.5 MiB (6%)
Alignment                                : Aligned on interleaves
Interleave, duration                     : 80 ms (2.00 video frames)
Interleave, preload duration             : 504 ms
Writing library                          : LAME3.98.2





    	http://addpix.net/viewer.php?file=36367268973078998780.jpg
    	http://addpix.net/viewer.php?file=74639601297684798344.jpg
    	http://addpix.net/viewer.php?file=88244391266525179031.jpg
    	http://addpix.net/viewer.php?file=26997995530416565065.jpg
    	http://addpix.net/viewer.php?file=35999983710319398732.jpg